<svg width="809" height="120" viewBox="0 0 809 120" fill="none" xmlns="http://www.w3.org/2000/svg">
<path d="M60 70.0032C93.5 66.9495 117 63.4482 150 55.5016C175.518 49.3567 230 20.5 219.5 1.95811C216.178 1.26674 208 -4 200 11.5004C194 0.958505 187.157 0.496045 179.5 0.958625C157.54 2.28535 233.157 83.4851 277.5 67.9053C314.5 54.9053 362.718 57.7463 385 60.0031C491 70.7394 522 173.003 758 59.0032" stroke="#AFAFAF" stroke-opacity="0.72" stroke-linejoin="round" stroke-dasharray="5 5"/>
<circle cx="759" cy="70" r="50" fill="#EAEAEA"/>
<circle cx="392" cy="70" r="50" fill="#EAEAEA"/>
<circle cx="50" cy="70" r="50" fill="#EAEAEA"/>
<g clip-path="url(#clip0)">
<path d="M384.791 79.9246L376.39 98.0378" stroke="#7383BF" stroke-width="2" stroke-miterlimit="10" stroke-linecap="round"/>
<path d="M384.791 79.9246L393.192 98.0378" stroke="#7383BF" stroke-width="2" stroke-miterlimit="10" stroke-linecap="round"/>
<path d="M418.626 77.5787L404.465 64.0459C403.677 63.2501 403.697 61.955 404.508 61.184L418.669 48.1131C419.931 46.9154 422 47.8176 422 49.5655V62.5923V76.1693C422 77.9455 419.872 78.8342 418.626 77.5787Z" fill="#EFCE4A"/>
<path d="M401.427 79.9244H366.292C363.921 79.9244 362 78.0033 362 75.6327V49.295C362 46.8395 364.009 44.8301 366.465 44.8301H401.686C404.152 44.8301 406.151 46.8293 406.151 49.295V75.2003C406.151 77.7984 404.025 79.9244 401.427 79.9244Z" fill="#363E4B"/>
<path d="M375.019 64.0754C378.458 64.0754 381.245 61.2877 381.245 57.849C381.245 54.4102 378.458 51.6226 375.019 51.6226C371.58 51.6226 368.792 54.4102 368.792 57.849C368.792 61.2877 371.58 64.0754 375.019 64.0754Z" fill="#EFCE4A"/>
<path d="M376.717 58.415L382.377 64.0754" stroke="white" stroke-width="2" stroke-miterlimit="10" stroke-linecap="round"/>
</g>
<g clip-path="url(#clip1)">
<path d="M756.748 71.5695C757.716 72.2697 758.908 72.6826 760.196 72.6826H771.216V78.0259L778.201 72.6826H781.215C784.463 72.6826 787.097 70.0572 787.097 66.8186V45.8641C787.097 42.6254 784.463 40 781.215 40H760.196C756.947 40 754.314 42.6254 754.314 45.8641V71.5695H756.748Z" fill="#F7F3F1"/>
<path d="M781.215 40H776.177C779.425 40 782.059 42.6255 782.059 45.8641V66.8186C782.059 70.0572 779.425 72.6826 776.177 72.6826H773.163L771.216 74.1721V78.0259L778.201 72.6826H781.215C784.463 72.6826 787.097 70.0572 787.097 66.8186V45.8641C787.097 42.6255 784.463 40 781.215 40V40Z" fill="#EFE7E3"/>
<path d="M766.173 64.0874L766.779 64.5781C767.74 65.3562 768.939 65.7808 770.176 65.7808H778.783C779.599 65.7808 780.255 65.1002 780.217 64.2757C780.18 63.5036 780.218 56.4715 780.218 55.6787C780.218 54.8859 779.576 54.2431 778.783 54.2431L772.946 54.2254L773.661 52.5331C774.403 50.7746 774.283 48.7704 773.336 47.1131C772.823 46.3194 771.576 46.6115 771.552 47.587C771.552 49.1047 770.998 50.57 769.994 51.708L766.272 55.919H764.916V64.0873H766.173V64.0874Z" fill="#FFD36C"/>
<path d="M765.592 65.3822H761.663C761.403 65.3822 761.192 65.1717 761.192 64.9119V54.8949C761.192 54.6352 761.403 54.4246 761.663 54.4246H765.592C765.852 54.4246 766.063 54.6351 766.063 54.8949V64.9119C766.062 65.1716 765.852 65.3822 765.592 65.3822Z" fill="#8EE6F3"/>
<path d="M756.756 82.0709V60.9222C756.756 58.3683 754.679 56.2979 752.117 56.2979H735.542C732.981 56.2979 730.904 58.3683 730.904 60.9222V77.4466C730.904 80.0005 732.981 82.0709 735.542 82.0709H744.648V86.324L750.157 82.0709H756.756Z" fill="#72D1FB"/>
<path d="M752.117 56.2979H745.549C748.111 56.2979 750.187 58.3683 750.187 60.9222V82.0709H756.756V60.9222C756.756 58.3683 754.679 56.2979 752.117 56.2979V56.2979Z" fill="#62A6FD"/>
<path d="M749.908 70.5429H746.575L746.94 68.3341H749.908C751.076 68.3341 751.076 66.5232 749.908 66.5232H747.239L747.738 63.5077C747.929 62.3555 746.142 62.0599 745.951 63.2124L745.404 66.5232H743.22L743.718 63.5077C743.909 62.3555 742.123 62.0598 741.932 63.2124L741.384 66.5232H737.751C736.583 66.5232 736.583 68.3341 737.751 68.3341H741.085L740.72 70.5429H737.751C736.583 70.5429 736.583 72.3537 737.751 72.3537H740.42L739.922 75.3693C739.733 76.5093 741.518 76.8186 741.708 75.6646L742.256 72.3537H744.44L743.942 75.3693C743.753 76.5093 745.537 76.8186 745.728 75.6646L746.275 72.3537H749.908C751.076 72.3537 751.076 70.5429 749.908 70.5429V70.5429ZM744.74 70.5429H742.555L742.921 68.3341H745.105L744.74 70.5429Z" fill="#F7F3F1"/>
<path d="M765.729 78.6919H753.966C752.148 78.6919 750.674 80.1611 750.674 81.9735V93.7C750.674 95.5124 752.148 96.9816 753.966 96.9816H760.428V100L764.337 96.9817H765.729C767.547 96.9817 769.02 95.5125 769.02 93.7001V81.9737C769.02 80.1612 767.547 78.6919 765.729 78.6919Z" fill="#FA9084"/>
<path d="M765.728 78.6919H760.658C762.476 78.6919 763.95 80.1611 763.95 81.9735V93.7001C763.95 95.5125 762.476 96.9817 760.658 96.9817H760.428V100L764.337 96.9817H765.728C767.546 96.9817 769.02 95.5125 769.02 93.7001V81.9735C769.02 80.1612 767.546 78.6919 765.728 78.6919Z" fill="#FF6CB5"/>
<path d="M759.847 91.8213C762.678 90.3208 764.144 89.044 764.144 87.0661C764.144 84.3378 760.802 83.6557 759.847 85.702C758.756 83.5876 755.55 84.3379 755.55 87.0661C755.55 89.044 757.017 90.3207 759.847 91.8213Z" fill="#F7F3F1"/>
</g>
<g clip-path="url(#clip2)">
<path d="M19.9888 72.0007L49.9826 42.0069L79.9765 72.0007L49.9826 101.995L19.9888 72.0007Z" fill="#F0C419"/>
<path d="M64.4828 87.5173L50 102V87.5173H64.4828Z" fill="#E57E25"/>
<path d="M49.9998 87.5173V102L35.5171 87.5173H49.9998Z" fill="#F29C1F"/>
<path d="M64.4826 87.5172H35.5171L49.9998 42L64.4826 87.5172Z" fill="#F3D55B"/>
<path d="M50.0003 58.5517C49.429 58.5517 48.9658 58.0885 48.9658 57.5172V56.4827C48.9658 55.9114 49.429 55.4482 50.0003 55.4482C50.5716 55.4482 51.0348 55.9114 51.0348 56.4827V57.5172C51.0348 58.0885 50.5716 58.5517 50.0003 58.5517Z" fill="#F0C419"/>
<path d="M50.0003 63.7241C49.429 63.7241 48.9658 63.2609 48.9658 62.6896V61.6551C48.9658 61.0838 49.429 60.6206 50.0003 60.6206C50.5716 60.6206 51.0348 61.0838 51.0348 61.6551V62.6896C51.0348 63.2609 50.5716 63.7241 50.0003 63.7241Z" fill="#F0C419"/>
<path d="M50.0003 68.8964C49.429 68.8964 48.9658 68.4333 48.9658 67.8619V66.8275C48.9658 66.2561 49.429 65.793 50.0003 65.793C50.5716 65.793 51.0348 66.2561 51.0348 66.8275V67.8619C51.0348 68.4333 50.5716 68.8964 50.0003 68.8964Z" fill="#F0C419"/>
<path d="M50.0003 74.069C49.429 74.069 48.9658 73.6059 48.9658 73.0345V72.0001C48.9658 71.4287 49.429 70.9656 50.0003 70.9656C50.5716 70.9656 51.0348 71.4287 51.0348 72.0001V73.0345C51.0348 73.6059 50.5716 74.069 50.0003 74.069Z" fill="#F0C419"/>
<path d="M50.0003 79.2414C49.429 79.2414 48.9658 78.7782 48.9658 78.2069V77.1724C48.9658 76.6011 49.429 76.1379 50.0003 76.1379C50.5716 76.1379 51.0348 76.6011 51.0348 77.1724V78.2069C51.0348 78.7782 50.5716 79.2414 50.0003 79.2414Z" fill="#F0C419"/>
<path d="M50.0003 84.4138C49.429 84.4138 48.9658 83.9506 48.9658 83.3793V82.3448C48.9658 81.7735 49.429 81.3103 50.0003 81.3103C50.5716 81.3103 51.0348 81.7735 51.0348 82.3448V83.3793C51.0348 83.9506 50.5716 84.4138 50.0003 84.4138Z" fill="#F0C419"/>
</g>
<g clip-path="url(#clip3)">
<path d="M250.826 72.1536L287.106 65.1124L258.918 67.3781L250.826 72.1536Z" fill="#FED16A"/>
<path d="M252.234 53.0262L287.106 65.1126L256.788 62.8941L252.234 53.0262Z" fill="#FFEE58"/>
<path d="M287.106 65.1128L258.918 67.3786L264.052 78.3746L287.106 65.1128Z" fill="#FFEE58"/>
<path d="M262.979 76.0761L264.052 78.3744L287.106 65.1127L262.979 76.0761Z" fill="#FFE579"/>
<path d="M256.787 62.8941L250.826 72.1538L258.918 67.3783L287.106 65.1125L256.787 62.8941Z" fill="#FFD338"/>
</g>
<g clip-path="url(#clip4)">
<path d="M505.518 101.679L541.423 110.434L514.864 100.719L505.518 101.679Z" fill="#FED16A"/>
<path d="M514.786 84.8875L541.423 110.434L514.802 95.7554L514.786 84.8875Z" fill="#FFEE58"/>
<path d="M541.423 110.434L514.864 100.72L514.937 112.855L541.423 110.434Z" fill="#FFEE58"/>
<path d="M514.922 110.319L514.937 112.855L541.423 110.434L514.922 110.319Z" fill="#FFE579"/>
<path d="M514.802 95.7553L505.518 101.679L514.864 100.719L541.423 110.434L514.802 95.7553Z" fill="#FFD338"/>
</g>
<defs>
<clipPath id="clip0">
<rect width="60" height="60" fill="white" transform="translate(362 42)"/>
</clipPath>
<clipPath id="clip1">
<rect width="60" height="60" fill="white" transform="translate(729 40)"/>
</clipPath>
<clipPath id="clip2">
<rect width="60" height="60" fill="white" transform="translate(20 42)"/>
</clipPath>
<clipPath id="clip3">
<rect width="32" height="32" fill="white" transform="translate(266.112 40.9619) rotate(48.9999)"/>
</clipPath>
<clipPath id="clip4">
<rect width="32" height="32" fill="white" transform="translate(532.434 79.7222) rotate(73.6865)"/>
</clipPath>
</defs>
</svg>
