<svg width="137" height="641" viewBox="0 0 137 641" fill="none" xmlns="http://www.w3.org/2000/svg">
<path d="M70.4604 91.05C67.4131 113.84 63.9162 129.828 55.9758 152.279C49.8358 169.64 20.9893 206.711 2.44548 199.573C1.75348 197.313 -3.5148 191.751 11.9841 186.305C1.44106 182.226 0.977307 177.571 1.43844 172.362C2.76101 157.423 83.9751 208.841 68.4036 239.011C55.4106 264.184 71.3137 294.381 73.5747 309.538C84.331 381.645 173.548 405.309 59.5923 565.886" stroke="#AFAFAF" stroke-opacity="0.72" stroke-linejoin="round" stroke-dasharray="5 5"/>
<circle cx="68" cy="314" r="50" fill="#EAEAEA"/>
<circle cx="68" cy="50" r="50" fill="#EAEAEA"/>
<circle cx="68" cy="591" r="50" fill="#EAEAEA"/>
<g clip-path="url(#clip0)">
<path d="M60.7908 323.925L52.3896 342.038" stroke="#7383BF" stroke-width="2" stroke-miterlimit="10" stroke-linecap="round"/>
<path d="M60.791 323.925L69.1921 342.038" stroke="#7383BF" stroke-width="2" stroke-miterlimit="10" stroke-linecap="round"/>
<path d="M94.6264 321.579L80.4653 308.046C79.6774 307.25 79.6966 305.955 80.5083 305.184L94.6694 292.113C95.9306 290.915 98 291.818 98 293.566V306.592V320.169C98 321.946 95.8717 322.834 94.6264 321.579Z" fill="#EFCE4A"/>
<path d="M77.4268 323.925H42.2917C39.9211 323.925 38 322.003 38 319.633V293.295C38 290.84 40.0094 288.83 42.4649 288.83H77.686C80.1517 288.83 82.1509 290.829 82.1509 293.295V319.2C82.1509 321.799 80.0249 323.925 77.4268 323.925Z" fill="#363E4B"/>
<path d="M51.0189 308.076C54.4576 308.076 57.2453 305.288 57.2453 301.849C57.2453 298.41 54.4576 295.623 51.0189 295.623C47.5801 295.623 44.7925 298.41 44.7925 301.849C44.7925 305.288 47.5801 308.076 51.0189 308.076Z" fill="#EFCE4A"/>
<path d="M52.7168 302.415L58.3772 308.076" stroke="white" stroke-width="2" stroke-miterlimit="10" stroke-linecap="round"/>
</g>
<g clip-path="url(#clip1)">
<path d="M38.9888 50.0009L68.9826 20.007L98.9765 50.0009L68.9826 79.9947L38.9888 50.0009Z" fill="#F0C419"/>
<path d="M83.4828 65.5172L69 80V65.5172H83.4828Z" fill="#E57E25"/>
<path d="M68.9998 65.5172V80L54.5171 65.5172H68.9998Z" fill="#F29C1F"/>
<path d="M83.4826 65.5172H54.5171L68.9998 20L83.4826 65.5172Z" fill="#F3D55B"/>
<path d="M69.0003 36.5518C68.429 36.5518 67.9658 36.0886 67.9658 35.5173V34.4828C67.9658 33.9115 68.429 33.4483 69.0003 33.4483C69.5716 33.4483 70.0348 33.9115 70.0348 34.4828V35.5173C70.0348 36.0886 69.5716 36.5518 69.0003 36.5518Z" fill="#F0C419"/>
<path d="M69.0003 41.7242C68.429 41.7242 67.9658 41.261 67.9658 40.6897V39.6552C67.9658 39.0839 68.429 38.6207 69.0003 38.6207C69.5716 38.6207 70.0348 39.0839 70.0348 39.6552V40.6897C70.0348 41.261 69.5716 41.7242 69.0003 41.7242Z" fill="#F0C419"/>
<path d="M69.0003 46.8966C68.429 46.8966 67.9658 46.4334 67.9658 45.8621V44.8276C67.9658 44.2563 68.429 43.7932 69.0003 43.7932C69.5716 43.7932 70.0348 44.2563 70.0348 44.8276V45.8621C70.0348 46.4334 69.5716 46.8966 69.0003 46.8966Z" fill="#F0C419"/>
<path d="M69.0003 52.069C68.429 52.069 67.9658 51.6058 67.9658 51.0345V50C67.9658 49.4287 68.429 48.9655 69.0003 48.9655C69.5716 48.9655 70.0348 49.4287 70.0348 50V51.0345C70.0348 51.6058 69.5716 52.069 69.0003 52.069Z" fill="#F0C419"/>
<path d="M69.0003 57.2414C68.429 57.2414 67.9658 56.7782 67.9658 56.2069V55.1724C67.9658 54.6011 68.429 54.1379 69.0003 54.1379C69.5716 54.1379 70.0348 54.6011 70.0348 55.1724V56.2069C70.0348 56.7782 69.5716 57.2414 69.0003 57.2414Z" fill="#F0C419"/>
<path d="M69.0003 62.4138C68.429 62.4138 67.9658 61.9507 67.9658 61.3793V60.3448C67.9658 59.7735 68.429 59.3104 69.0003 59.3104C69.5716 59.3104 70.0348 59.7735 70.0348 60.3448V61.3793C70.0348 61.9507 69.5716 62.4138 69.0003 62.4138Z" fill="#F0C419"/>
</g>
<g clip-path="url(#clip2)">
<path d="M65.7475 592.57C66.7165 593.27 67.9079 593.683 69.1961 593.683H80.2159V599.026L87.2012 593.683H90.2147C93.4633 593.683 96.0968 591.057 96.0968 587.819V566.864C96.0969 563.625 93.4634 561 90.2147 561H69.196C65.9474 561 63.314 563.625 63.314 566.864V592.57H65.7475Z" fill="#F7F3F1"/>
<path d="M90.2147 561H85.1765C88.4252 561 91.0587 563.626 91.0587 566.864V587.819C91.0587 591.057 88.4252 593.683 85.1766 593.683H82.1631L80.2158 595.172V599.026L87.2012 593.683H90.2147C93.4633 593.683 96.0967 591.057 96.0967 587.819V566.864C96.0969 563.626 93.4633 561 90.2147 561V561Z" fill="#EFE7E3"/>
<path d="M75.1726 585.087L75.7789 585.578C76.7401 586.356 77.9394 586.781 79.176 586.781H87.7826C88.5985 586.781 89.2555 586.1 89.2166 585.276C89.1803 584.503 89.2183 577.471 89.2183 576.679C89.2183 575.886 88.5756 575.243 87.7826 575.243L81.9465 575.225L82.661 573.533C83.4035 571.775 83.2835 569.77 82.3364 568.113C81.823 567.319 80.5761 567.611 80.5519 568.587C80.5519 570.105 79.9977 571.57 78.9937 572.708L75.2722 576.919H73.9155V585.087H75.1726V585.087Z" fill="#FFD36C"/>
<path d="M74.5922 586.382H70.6627C70.403 586.382 70.1924 586.172 70.1924 585.912V575.895C70.1924 575.635 70.4029 575.425 70.6627 575.425H74.5922C74.8519 575.425 75.0625 575.635 75.0625 575.895V585.912C75.0624 586.172 74.8519 586.382 74.5922 586.382Z" fill="#8EE6F3"/>
<path d="M65.756 603.071V581.922C65.756 579.368 63.6793 577.298 61.1174 577.298H44.5424C41.9806 577.298 39.9038 579.368 39.9038 581.922V598.446C39.9038 601 41.9805 603.071 44.5424 603.071H53.648V607.324L59.1566 603.071H65.756Z" fill="#72D1FB"/>
<path d="M61.1173 577.298H54.5488C57.1106 577.298 59.1874 579.368 59.1874 581.922V603.071H65.7559V581.922C65.7558 579.368 63.6791 577.298 61.1173 577.298V577.298Z" fill="#62A6FD"/>
<path d="M58.9084 591.543H55.5749L55.9401 589.334H58.9084C60.0764 589.334 60.0764 587.523 58.9084 587.523H56.2395L56.7381 584.508C56.9286 583.356 55.1421 583.06 54.9515 584.212L54.4041 587.523H52.2198L52.7184 584.508C52.9089 583.356 51.1227 583.06 50.9318 584.212L50.3845 587.523H46.7515C45.5835 587.523 45.5835 589.334 46.7515 589.334H50.0851L49.7199 591.543H46.7515C45.5835 591.543 45.5835 593.354 46.7515 593.354H49.4205L48.9219 596.369C48.7333 597.509 50.5176 597.819 50.7085 596.665L51.2558 593.354H53.4401L52.9415 596.369C52.7529 597.509 54.5372 597.819 54.7281 596.665L55.2755 593.354H58.9084C60.0764 593.354 60.0764 591.543 58.9084 591.543V591.543ZM53.7395 591.543H51.5554L51.9205 589.334H54.1048L53.7395 591.543Z" fill="#F7F3F1"/>
<path d="M74.7285 599.692H62.9661C61.1481 599.692 59.6743 601.161 59.6743 602.974V614.7C59.6743 616.512 61.1481 617.982 62.9661 617.982H69.4279V621L73.337 617.982H74.7285C76.5465 617.982 78.0203 616.513 78.0203 614.7V602.974C78.0203 601.161 76.5465 599.692 74.7285 599.692Z" fill="#FA9084"/>
<path d="M74.7284 599.692H69.658C71.4759 599.692 72.9497 601.161 72.9497 602.974V614.7C72.9497 616.513 71.4759 617.982 69.658 617.982H69.4277V621L73.3369 617.982H74.7284C76.5464 617.982 78.0202 616.513 78.0202 614.7V602.974C78.0202 601.161 76.5464 599.692 74.7284 599.692Z" fill="#FF6CB5"/>
<path d="M68.8472 612.821C71.6777 611.321 73.1442 610.044 73.1442 608.066C73.1442 605.338 69.802 604.656 68.8472 606.702C67.7559 604.588 64.5503 605.338 64.5503 608.066C64.5503 610.044 66.0167 611.321 68.8472 612.821Z" fill="#F7F3F1"/>
</g>
<path d="M102.891 382.919L117.859 416.709L109.353 389.739L102.891 382.919Z" fill="#FED16A"/>
<path d="M121.849 380.018L117.859 416.709L113.248 386.661L121.849 380.018Z" fill="#FFEE58"/>
<path d="M117.859 416.709L109.353 389.739L99.7817 397.2L117.859 416.709Z" fill="#FFEE58"/>
<path d="M101.782 395.641L99.782 397.2L117.859 416.709L101.782 395.641Z" fill="#FFE579"/>
<path d="M113.248 386.661L102.891 382.919L109.353 389.739L117.859 416.709L113.248 386.661Z" fill="#FFD338"/>
<path d="M74.5304 138.945L49.1721 165.829L66.1671 143.226L74.5304 138.945Z" fill="#FED16A"/>
<path d="M57.6174 129.901L49.1721 165.829L63.5182 139.028L57.6174 129.901Z" fill="#FFEE58"/>
<path d="M49.1724 165.83L66.1674 143.227L72.7104 153.447L49.1724 165.83Z" fill="#FFEE58"/>
<path d="M71.3427 151.311L72.7102 153.447L49.1722 165.829L71.3427 151.311Z" fill="#FFE579"/>
<path d="M63.518 139.028L74.5302 138.946L66.1669 143.226L49.1719 165.829L63.518 139.028Z" fill="#FFD338"/>
<defs>
<clipPath id="clip0">
<rect width="60" height="60" fill="white" transform="translate(38 286)"/>
</clipPath>
<clipPath id="clip1">
<rect width="60" height="60" fill="white" transform="translate(39 20)"/>
</clipPath>
<clipPath id="clip2">
<rect width="60" height="60" fill="white" transform="translate(38 561)"/>
</clipPath>
</defs>
</svg>
