<svg id="Capa_1" enable-background="new 0 0 512 512" height="512" viewBox="0 0 512 512" width="512" xmlns="http://www.w3.org/2000/svg"><g><g><path d="m436.717 400.142h-289.584v-364.867h364.867v289.584z" fill="#e1f7f7"/><path d="m470.793 35.275v289.584l-.614 41.821 41.821-41.821v-289.584z" fill="#cdf7f7"/><path d="m436.717 400.142v-75.283h75.283z" fill="#74e0e0"/></g><g><g><g><path d="m147.175 355.958v-198.908c-18.71 0-33.878 15.14-33.878 33.816v165.092z" fill="#ababab"/><path d="m181.053 355.958v-165.092c0-18.676-15.168-33.816-33.878-33.816v121.618l-33.878 34.076v43.215h67.756" fill="#dbdbdb"/><path d="m113.297 355.958v40.061c-8.26-4.134-17.585-6.462-27.455-6.462-33.873 0-61.333 27.41-61.333 61.221s27.459 61.222 61.333 61.222c33.873 0 61.333-27.41 61.333-61.221v-94.821zm-27.455 121.389c-14.676 0-26.616-11.918-26.616-26.568s11.94-26.568 26.616-26.568 26.616 11.918 26.616 26.568-11.94 26.568-26.616 26.568z" fill="#fc90d4"/><path d="m147.175 355.958v94.821c0 33.811 27.46 61.221 61.333 61.221s61.333-27.41 61.333-61.221-27.46-61.221-61.333-61.221c-9.87 0-19.195 2.327-27.455 6.462v-40.061h-33.878zm34.717 94.821c0-14.649 11.94-26.568 26.616-26.568s26.616 11.918 26.616 26.568-11.94 26.568-26.616 26.568-26.616-11.919-26.616-26.568z" fill="#ffbfe7"/><g><path d="m208.508 389.558c-7.228 0-14.164 1.248-20.603 3.54 17.203 6.123 30.863 19.697 37.08 36.83 6.172 4.87 10.14 12.406 10.14 20.851 0 8.444-3.968 15.981-10.14 20.851-6.217 17.133-19.877 30.707-37.08 36.83 6.44 2.292 13.376 3.54 20.604 3.54 33.873 0 61.333-27.41 61.333-61.221s-27.461-61.221-61.334-61.221z" fill="#ffb0e1"/></g></g><g><path d="m147.175 329.502c9.943 0 9.96-15.453 0-15.453-9.943 0-9.96 15.453 0 15.453z" fill="#636363"/></g></g><g><path d="m13.85 61.993h54.773v234.923h-54.773z" fill="#f2c43a"/><path d="m13.85 296.915h54.773l-27.387 57.327z" fill="#636363"/><path d="m68.623 61.993h-54.773v-34.632c0-15.111 12.25-27.361 27.361-27.361h.05c15.111 0 27.361 12.25 27.361 27.361v34.632z" fill="#ffbfe7"/><path d="m64.383 86.64h-47.204c-9.488 0-17.179-7.691-17.179-17.178 0-9.488 7.691-17.179 17.179-17.179h47.204c9.488 0 17.179 7.691 17.179 17.179-.001 9.487-7.692 17.178-17.179 17.178z" fill="#636363"/></g></g></g></svg>