<?xml version="1.0"?>
<svg xmlns="http://www.w3.org/2000/svg" xmlns:xlink="http://www.w3.org/1999/xlink" xmlns:svgjs="http://svgjs.com/svgjs" version="1.1" width="512" height="512" x="0" y="0" viewBox="0 0 512 512" style="enable-background:new 0 0 512 512" xml:space="preserve" class=""><g><g xmlns="http://www.w3.org/2000/svg"><path d="m271 425.257c63.057-8.569 107.219-69.484 93.311-133.411l-93.311 33.962z" fill="#ffffff" data-original="#000000" style="" class=""/><path d="m271 205.606v88.277l82.994-30.207c-16.388-30.904-46.965-53.174-82.994-58.07z" fill="#ffffff" data-original="#000000" style="" class=""/><path d="m145.155 315.431c0 56.033 41.794 102.48 95.845 109.825v-219.65c-54.051 7.345-95.845 53.792-95.845 109.825z" fill="#ffffff" data-original="#000000" style="" class=""/><path d="m271 119.43v-1.329c25.849-6.677 45-30.195 45-58.101 0-33.084-26.916-60-60-60s-60 26.916-60 60c0 27.906 19.151 51.424 45 58.101v1.329c-101.408 7.688-181.569 92.659-181.569 196.001 0 108.388 88.18 196.569 196.569 196.569s196.569-88.181 196.569-196.569c0-103.342-80.161-188.313-181.569-196.001zm-45-59.43c0-16.542 13.458-30 30-30s30 13.458 30 30c0 11.08-6.042 20.769-15 25.964v-9.964c0-8.284-6.716-15-15-15s-15 6.716-15 15v9.964c-8.958-5.195-15-14.884-15-25.964zm30 396.275c-77.662 0-140.845-63.183-140.845-140.844s63.183-140.844 140.845-140.844 140.845 63.183 140.845 140.844-63.183 140.844-140.845 140.844z" fill="#ffffff" data-original="#000000" style="" class=""/><path d="m467.82 151.61-42.43-42.43c-5.875-5.875-15.383-5.827-21.21 0l-19.71 19.71c24.89 17.2 46.19 39.25 62.51 64.77l20.84-20.84c5.86-5.86 5.86-15.36 0-21.21z" fill="#ffffff" data-original="#000000" style="" class=""/><path d="m127.53 128.89-19.71-19.71c-5.829-5.828-15.336-5.874-21.21 0l-42.43 42.43c-5.86 5.85-5.86 15.35 0 21.21l20.84 20.84c16.32-25.52 37.62-47.57 62.51-64.77z" fill="#ffffff" data-original="#000000" style="" class=""/></g></g></svg>
